<svg width="59" height="59" viewBox="0 0 59 59" fill="none" xmlns="http://www.w3.org/2000/svg">
<path d="M56.964 29.3907C55.2292 27.6392 54.8423 24.9782 56.0078 22.8118C56.84 21.2677 56.8983 19.4318 56.1635 17.8372C55.4311 16.2449 53.9907 15.0821 52.268 14.6961C49.8567 14.1532 48.0781 12.1219 47.881 9.67562C47.7374 7.93137 46.7836 6.35117 45.2969 5.40547C43.8151 4.45735 41.9708 4.25228 40.3089 4.853C37.9828 5.69014 35.3793 4.9302 33.8805 2.98089C32.8099 1.59128 31.1456 0.773438 29.3791 0.773438C27.615 0.773438 25.9507 1.59128 24.8801 2.98089C23.3886 4.93261 20.7851 5.69255 18.4589 4.85541C16.7995 4.25711 14.9552 4.46217 13.4709 5.40788C11.9867 6.35358 11.0304 7.93378 10.8893 9.67803C10.6898 12.1243 8.91357 14.1581 6.50229 14.6985C4.77959 15.0845 3.33915 16.2473 2.60676 17.8396C1.87438 19.4318 1.93277 21.2702 2.76492 22.8118C3.93041 24.9758 3.54354 27.6392 1.81111 29.3907C0.572623 30.638 -0.00647452 32.387 0.244143 34.1192C0.494761 35.8514 1.54833 37.3689 3.09097 38.2205C5.25163 39.4147 6.38063 41.8634 5.87453 44.2638C5.51685 45.9767 5.98159 47.7572 7.13735 49.0792C8.29554 50.4037 10.0085 51.1154 11.7653 51.0044C14.2374 50.8524 16.5173 52.3072 17.4029 54.5966C18.0331 56.2323 19.3982 57.4796 21.0941 57.9717C22.7851 58.4639 24.6149 58.1455 26.0359 57.1105C28.0287 55.6557 30.7465 55.6557 32.7369 57.1105C34.1578 58.1479 35.9876 58.4663 37.6786 57.9717C39.3746 57.4796 40.7396 56.2299 41.3722 54.5966C42.2555 52.3072 44.5378 50.85 47.0075 51.0044C48.7691 51.1154 50.4796 50.4037 51.6354 49.0792C52.7911 47.7572 53.2583 45.9767 52.8982 44.2638C52.3945 41.8634 53.5211 39.4147 55.6842 38.2205C57.2244 37.3665 58.2755 35.8514 58.5286 34.1192C58.7816 32.387 58.2001 30.638 56.964 29.3907ZM26.3449 42.4906L15.3956 31.9624L19.914 27.4824L26.3449 33.5282L40.0753 19.5742L44.5938 24.0542L26.3449 42.4906Z" fill="#F8765E"/>
</svg>
